<svg width="1109" height="800" viewBox="0 0 1109 800" fill="none" xmlns="http://www.w3.org/2000/svg">
<path fill-rule="evenodd" clip-rule="evenodd" d="M367.99 738.584C297.587 743.219 229.174 727.387 164.298 699.654C65.1067 657.253 -82.1552 640.518 -106.993 535.545C-131.21 433.196 -12.2907 350.156 64.6308 278.429C121.376 225.515 201.359 215.618 271.553 182.56C328.823 155.588 375.997 99.9508 439.268 101.992C501.883 104.011 557.515 146.424 599.266 193.13C635.225 233.357 611.737 308.292 653.842 342.032C753.641 422.004 933.13 393.545 991.418 507.377C1040.88 603.973 996.166 774.41 894.041 811.124C767.356 856.667 655.463 694.487 522.101 676.097C466.053 668.368 424.446 734.867 367.99 738.584Z" fill="#F9F9F9"/>
</svg>
